<svg xmlns="http://www.w3.org/2000/svg" viewBox="0 0 400 320" fill="none">
  <!-- 背景なし（透過） -->

  <!-- 左の人物（ボケ：両手上げポーズ） -->
  <g fill="#FFD700" opacity="0.92">
    <!-- 頭 -->
    <ellipse cx="118" cy="52" rx="26" ry="28"/>
    <!-- 胴体 -->
    <path d="M90 80 Q118 72 146 80 L152 160 Q118 168 84 160 Z"/>
    <!-- 左腕（上げ） -->
    <path d="M92 90 Q68 68 52 44 Q58 38 66 42 Q80 62 96 90 Z"/>
    <!-- 右腕（上げ） -->
    <path d="M144 90 Q168 68 184 44 Q190 38 182 42 Q168 62 152 90 Z"/>
    <!-- 左脚 -->
    <path d="M98 158 Q92 208 86 250 Q80 260 96 260 Q104 248 108 210 Z"/>
    <!-- 右脚 -->
    <path d="M138 158 Q144 208 150 250 Q156 260 140 260 Q132 248 128 210 Z"/>
  </g>

  <!-- 右の人物（ツッコミ：指さしポーズ） -->
  <g fill="#fff" opacity="0.88">
    <!-- 頭 -->
    <ellipse cx="282" cy="56" rx="24" ry="26"/>
    <!-- 胴体 -->
    <path d="M256 82 Q282 74 308 82 L314 162 Q282 170 250 162 Z"/>
    <!-- 左腕（横に伸ばして指さし） -->
    <path d="M258 96 Q216 100 176 102 Q174 110 178 114 Q216 112 260 108 Z"/>
    <!-- 右腕（腰） -->
    <path d="M306 96 Q320 112 316 130 Q308 132 304 118 Q306 106 304 96 Z"/>
    <!-- 左脚 -->
    <path d="M264 160 Q258 210 254 252 Q248 262 264 262 Q272 250 274 212 Z"/>
    <!-- 右脚 -->
    <path d="M300 160 Q306 210 310 252 Q316 262 300 262 Q292 250 290 212 Z"/>
  </g>

  <!-- 「図々しいボーイズ」テキスト影 -->
  <text x="200" y="300" text-anchor="middle"
        font-family="sans-serif" font-size="18" font-weight="900"
        fill="#FFD700" opacity="0.7" letter-spacing="2">図々しいボーイズ</text>
</svg>
